<?xml version="1.0" encoding="utf-8" standalone="no"?>
<!DOCTYPE svg PUBLIC "-//W3C//DTD SVG 1.1//EN"
  "http://www.w3.org/Graphics/SVG/1.1/DTD/svg11.dtd">
<!-- Created with matplotlib (https://matplotlib.org/) -->
<svg height="504pt" version="1.1" viewBox="0 0 648 504" width="648pt" xmlns="http://www.w3.org/2000/svg" xmlns:xlink="http://www.w3.org/1999/xlink">
 <defs>
  <style type="text/css">
*{stroke-linecap:butt;stroke-linejoin:round;}
  </style>
 </defs>
 <g id="figure_1">
  <g id="patch_1">
   <path d="M 0 504 
L 648 504 
L 648 0 
L 0 0 
z
" style="fill:#ffffff;"/>
  </g>
  <g id="axes_1">
   <g id="patch_2">
    <path d="M 81 448.56 
L 583.2 448.56 
L 583.2 60.48 
L 81 60.48 
z
" style="fill:#ffffff;"/>
   </g>
   <g id="matplotlib.axis_1">
    <g id="xtick_1">
     <g id="line2d_1">
      <defs>
       <path d="M 0 0 
L 0 3.5 
" id="m544f86cb7d" style="stroke:#000000;stroke-width:0.8;"/>
      </defs>
      <g>
       <use style="stroke:#000000;stroke-width:0.8;" x="103.827273" xlink:href="#m544f86cb7d" y="448.56"/>
      </g>
     </g>
     <g id="text_1">
      <!-- 0 -->
      <defs>
       <path d="M 23.703125 63.5 
Q 32 63.5 38.046875 54.140625 
Q 44.09375 44.796875 44.09375 30.90625 
Q 44.09375 17.09375 38.046875 7.75 
Q 32 -1.59375 23.703125 -1.59375 
Q 15.703125 -1.59375 9.5 7.65625 
Q 3.296875 16.90625 3.296875 30.90625 
Q 3.296875 44.796875 9.34375 54.140625 
Q 15.40625 63.5 23.703125 63.5 
z
M 23.703125 0.703125 
Q 31.09375 0.703125 33.9375 8.046875 
Q 36.796875 15.40625 36.796875 30.90625 
Q 36.796875 46.40625 33.9375 53.796875 
Q 31.09375 61.203125 23.703125 61.203125 
Q 16.296875 61.203125 13.4375 53.796875 
Q 10.59375 46.40625 10.59375 30.90625 
Q 10.59375 0.703125 23.703125 0.703125 
z
" id="STKaiti-48"/>
      </defs>
      <g transform="translate(99.136648 468.76)scale(0.2 -0.2)">
       <use xlink:href="#STKaiti-48"/>
      </g>
     </g>
    </g>
    <g id="xtick_2">
     <g id="line2d_2">
      <g>
       <use style="stroke:#000000;stroke-width:0.8;" x="225.767832" xlink:href="#m544f86cb7d" y="448.56"/>
      </g>
     </g>
     <g id="text_2">
      <!-- 5000 -->
      <defs>
       <path d="M 38 56.59375 
L 24 56.59375 
Q 16.203125 56.59375 15.40625 56.296875 
L 14.09375 38 
Q 18.5 40.09375 23.09375 40.09375 
Q 31.296875 40.09375 37 34.5 
Q 42.703125 28.90625 42.703125 19.90625 
Q 42.703125 9.90625 35.640625 4.15625 
Q 28.59375 -1.59375 19.59375 -1.59375 
Q 14.59375 -1.59375 10.390625 0.15625 
Q 6.203125 1.90625 6.203125 4 
Q 6.203125 5 7.09375 6.046875 
Q 8 7.09375 9.59375 7.09375 
Q 10.703125 7.09375 11.40625 6.59375 
Q 18.40625 1.296875 22.703125 1.296875 
Q 28.296875 1.296875 32.59375 6.140625 
Q 36.90625 11 36.90625 17.59375 
Q 36.90625 24.59375 32.546875 29.25 
Q 28.203125 33.90625 21.796875 33.90625 
Q 19 33.90625 16.546875 33 
Q 14.09375 32.09375 13 30.5 
L 11.296875 30.5 
L 13.203125 62.5 
L 24.09375 62.5 
Q 31.59375 62.5 34 62.703125 
Q 36.40625 62.90625 37.40625 64.203125 
L 38.90625 64.203125 
z
" id="STKaiti-53"/>
      </defs>
      <g transform="translate(207.005332 468.76)scale(0.2 -0.2)">
       <use xlink:href="#STKaiti-53"/>
       <use x="46.899994" xlink:href="#STKaiti-48"/>
       <use x="93.799988" xlink:href="#STKaiti-48"/>
       <use x="140.699982" xlink:href="#STKaiti-48"/>
      </g>
     </g>
    </g>
    <g id="xtick_3">
     <g id="line2d_3">
      <g>
       <use style="stroke:#000000;stroke-width:0.8;" x="347.708392" xlink:href="#m544f86cb7d" y="448.56"/>
      </g>
     </g>
     <g id="text_3">
      <!-- 10000 -->
      <defs>
       <path d="M 35.5 -0.296875 
Q 30.296875 0 23.796875 0 
Q 17.296875 0 12.09375 -0.296875 
L 12.09375 1.296875 
L 17.296875 2.203125 
Q 20.796875 2.90625 20.796875 6.09375 
L 20.796875 55.5 
L 8.90625 47.796875 
L 7.5 49.703125 
Q 14.40625 54.203125 24.09375 63.5 
L 27.40625 63.5 
L 27.40625 6.09375 
Q 27.40625 2.703125 30.90625 2.09375 
L 35.5 1.296875 
z
" id="STKaiti-49"/>
      </defs>
      <g transform="translate(324.255267 468.76)scale(0.2 -0.2)">
       <use xlink:href="#STKaiti-49"/>
       <use x="46.899994" xlink:href="#STKaiti-48"/>
       <use x="93.799988" xlink:href="#STKaiti-48"/>
       <use x="140.699982" xlink:href="#STKaiti-48"/>
       <use x="187.599976" xlink:href="#STKaiti-48"/>
      </g>
     </g>
    </g>
    <g id="xtick_4">
     <g id="line2d_4">
      <g>
       <use style="stroke:#000000;stroke-width:0.8;" x="469.648951" xlink:href="#m544f86cb7d" y="448.56"/>
      </g>
     </g>
     <g id="text_4">
      <!-- 15000 -->
      <g transform="translate(446.195826 468.76)scale(0.2 -0.2)">
       <use xlink:href="#STKaiti-49"/>
       <use x="46.899994" xlink:href="#STKaiti-53"/>
       <use x="93.799988" xlink:href="#STKaiti-48"/>
       <use x="140.699982" xlink:href="#STKaiti-48"/>
       <use x="187.599976" xlink:href="#STKaiti-48"/>
      </g>
     </g>
    </g>
    <g id="text_5">
     <!-- Step -->
     <defs>
      <path d="M 37.59375 47.703125 
Q 34.703125 60.796875 23.203125 60.796875 
Q 17.796875 60.796875 14.140625 57.6875 
Q 10.5 54.59375 10.5 50.40625 
Q 10.5 47.09375 13.453125 44.296875 
Q 16.40625 41.5 25.703125 36.703125 
Q 35.203125 31.796875 39.453125 28.09375 
Q 43.703125 24.40625 43.703125 17.09375 
Q 43.703125 8.703125 37.84375 3.546875 
Q 32 -1.59375 21.5 -1.59375 
Q 11.796875 -1.59375 3.796875 3.09375 
L 4.90625 18 
L 6.296875 18 
Q 7.203125 10.59375 12.296875 5.84375 
Q 17.40625 1.09375 23.59375 1.09375 
Q 29.5 1.09375 33.546875 4.59375 
Q 37.59375 8.09375 37.59375 13 
Q 37.59375 17.40625 34.34375 20.40625 
Q 31.09375 23.40625 23.59375 27.296875 
Q 13.203125 32.703125 9.09375 37.09375 
Q 5 41.5 5 47.203125 
Q 5 54.296875 10.5 58.890625 
Q 16 63.5 24.796875 63.5 
Q 33.59375 63.5 39.296875 59.09375 
L 38.90625 47.703125 
z
" id="STKaiti-83"/>
      <path d="M 15.296875 48.203125 
L 16.5 48.203125 
L 16.59375 37.5 
L 30.203125 37.796875 
L 30.203125 34.203125 
L 16.59375 33.796875 
L 16.59375 10 
Q 16.59375 5.5 17.84375 3.5 
Q 19.09375 1.5 21.90625 1.5 
Q 25.296875 1.5 30.09375 4.296875 
L 31 2.90625 
Q 28.90625 0.5 26.15625 -0.546875 
Q 23.40625 -1.59375 18.703125 -1.59375 
Q 13.5 -1.59375 11.890625 0.953125 
Q 10.296875 3.5 10.296875 11 
L 10.296875 33.59375 
L 4.90625 33.5 
Q 3.5 33.5 3.5 34.296875 
Q 3.5 35 4.796875 35.59375 
Q 9.09375 37.40625 11.046875 39.75 
Q 13 42.09375 15.296875 48.203125 
z
" id="STKaiti-116"/>
      <path d="M 38.703125 25.09375 
L 10.796875 25.09375 
Q 10.5 23.09375 10.5 21.09375 
Q 10.5 13.296875 14.75 8.390625 
Q 19 3.5 26.296875 3.5 
Q 29.796875 3.5 32.6875 4.890625 
Q 35.59375 6.296875 39 9.5 
L 39.40625 7.09375 
Q 32.40625 -1.59375 21.296875 -1.59375 
Q 14 -1.59375 9.09375 4.296875 
Q 4.203125 10.203125 4.203125 18.59375 
Q 4.203125 27.796875 9.640625 33.84375 
Q 15.09375 39.90625 23.5 39.90625 
Q 29.90625 39.90625 34.15625 35.84375 
Q 38.40625 31.796875 38.703125 25.09375 
z
M 11.296875 27.203125 
L 29.5 27.203125 
Q 32.203125 27.203125 32.203125 29.296875 
Q 32.203125 31.40625 30.203125 34.5 
Q 28.203125 37.59375 23.09375 37.59375 
Q 18.703125 37.59375 15.5 34.75 
Q 12.296875 31.90625 11.296875 27.203125 
z
" id="STKaiti-101"/>
      <path d="M 13.90625 33.703125 
Q 22.59375 39.90625 30.703125 39.90625 
Q 38.203125 39.90625 42.796875 34.546875 
Q 47.40625 29.203125 47.40625 20.203125 
Q 47.40625 11.09375 41.296875 4.75 
Q 35.203125 -1.59375 25.703125 -1.59375 
Q 20 -1.59375 13.90625 1.296875 
L 13.90625 -19.90625 
Q 13.90625 -21.203125 14.75 -21.953125 
Q 15.59375 -22.703125 18.09375 -23.09375 
L 24.09375 -24.09375 
L 24.09375 -25.703125 
Q 20.203125 -25.296875 12.59375 -25.296875 
Q 6.296875 -25.296875 1.203125 -25.703125 
L 1.203125 -24.09375 
L 5.40625 -23.296875 
Q 6.90625 -23 7.34375 -22.34375 
Q 7.796875 -21.703125 7.796875 -19.796875 
L 7.796875 30.296875 
Q 7.796875 33.90625 6.5 34.09375 
L 1.59375 34.90625 
L 1.90625 36.296875 
Q 6.90625 38.40625 8.953125 39.796875 
Q 11 41.203125 12.40625 43.5 
L 13.90625 43.5 
z
M 13.90625 30.703125 
L 13.90625 8.796875 
Q 13.90625 5.203125 17.203125 2.84375 
Q 20.5 0.5 25.703125 0.5 
Q 32.09375 0.5 36.296875 5.25 
Q 40.5 10 40.5 16.796875 
Q 40.5 25.5 36.796875 30.390625 
Q 33.09375 35.296875 26.90625 35.296875 
Q 20.796875 35.296875 13.90625 30.703125 
z
" id="STKaiti-112"/>
     </defs>
     <g transform="translate(315.11875 491.100625)scale(0.2 -0.2)">
      <use xlink:href="#STKaiti-83"/>
      <use x="47.899994" xlink:href="#STKaiti-116"/>
      <use x="77.099991" xlink:href="#STKaiti-101"/>
      <use x="118.799988" xlink:href="#STKaiti-112"/>
     </g>
    </g>
   </g>
   <g id="matplotlib.axis_2">
    <g id="ytick_1">
     <g id="line2d_5">
      <defs>
       <path d="M 0 0 
L -3.5 0 
" id="m00ab7a00b2" style="stroke:#000000;stroke-width:0.8;"/>
      </defs>
      <g>
       <use style="stroke:#000000;stroke-width:0.8;" x="81" xlink:href="#m00ab7a00b2" y="436.949481"/>
      </g>
     </g>
     <g id="text_6">
      <!-- 0.0 -->
      <defs>
       <path d="M 11 -1.59375 
Q 8.796875 -1.59375 7.296875 -0.09375 
Q 5.796875 1.40625 5.796875 3.59375 
Q 5.796875 5.796875 7.296875 7.296875 
Q 8.796875 8.796875 11 8.796875 
Q 13.203125 8.796875 14.703125 7.296875 
Q 16.203125 5.796875 16.203125 3.59375 
Q 16.203125 1.40625 14.703125 -0.09375 
Q 13.203125 -1.59375 11 -1.59375 
z
" id="STKaiti-46"/>
      </defs>
      <g transform="translate(50.85625 443.549481)scale(0.2 -0.2)">
       <use xlink:href="#STKaiti-48"/>
       <use x="46.899994" xlink:href="#STKaiti-46"/>
       <use x="68.799988" xlink:href="#STKaiti-48"/>
      </g>
     </g>
    </g>
    <g id="ytick_2">
     <g id="line2d_6">
      <g>
       <use style="stroke:#000000;stroke-width:0.8;" x="81" xlink:href="#m00ab7a00b2" y="393.765982"/>
      </g>
     </g>
     <g id="text_7">
      <!-- 0.2 -->
      <defs>
       <path d="M 42.59375 -0.296875 
Q 35.40625 0 22.203125 0 
Q 9.296875 0 2.203125 -0.296875 
Q 4.09375 3.59375 7 7.09375 
Q 9.90625 10.59375 16.296875 17 
Q 25.59375 26.296875 29.890625 32.84375 
Q 34.203125 39.40625 34.203125 46.09375 
Q 34.203125 51.59375 30.75 55 
Q 27.296875 58.40625 22.203125 58.40625 
Q 17.203125 58.40625 13.09375 54.953125 
Q 9 51.5 7.40625 45.203125 
L 5.09375 45.59375 
Q 6.703125 54.09375 11.796875 58.796875 
Q 16.90625 63.5 24.203125 63.5 
Q 31.5 63.5 36.59375 58.640625 
Q 41.703125 53.796875 41.703125 47 
Q 41.703125 40.203125 36.953125 34.25 
Q 32.203125 28.296875 22.59375 19.40625 
Q 17.5 14.703125 9.90625 5.296875 
L 33.40625 5.296875 
Q 37.203125 5.296875 38.75 6.640625 
Q 40.296875 8 42 12.5 
L 44.09375 12.5 
z
" id="STKaiti-50"/>
      </defs>
      <g transform="translate(50.85625 400.365982)scale(0.2 -0.2)">
       <use xlink:href="#STKaiti-48"/>
       <use x="46.899994" xlink:href="#STKaiti-46"/>
       <use x="68.799988" xlink:href="#STKaiti-50"/>
      </g>
     </g>
    </g>
    <g id="ytick_3">
     <g id="line2d_7">
      <g>
       <use style="stroke:#000000;stroke-width:0.8;" x="81" xlink:href="#m00ab7a00b2" y="350.582484"/>
      </g>
     </g>
     <g id="text_8">
      <!-- 0.4 -->
      <defs>
       <path d="M 32.59375 63.5 
L 35 63.5 
L 35 22 
L 45.59375 22 
L 45.59375 17.40625 
L 35 17.40625 
L 35 -1.59375 
L 28.40625 -1.59375 
L 28.40625 17.40625 
L 2.796875 17.40625 
L 2.796875 20.703125 
L 14.703125 38.09375 
z
M 28.40625 22 
L 28.40625 52.703125 
Q 14.796875 33.796875 7.59375 22 
z
" id="STKaiti-52"/>
      </defs>
      <g transform="translate(50.85625 357.182484)scale(0.2 -0.2)">
       <use xlink:href="#STKaiti-48"/>
       <use x="46.899994" xlink:href="#STKaiti-46"/>
       <use x="68.799988" xlink:href="#STKaiti-52"/>
      </g>
     </g>
    </g>
    <g id="ytick_4">
     <g id="line2d_8">
      <g>
       <use style="stroke:#000000;stroke-width:0.8;" x="81" xlink:href="#m00ab7a00b2" y="307.398985"/>
      </g>
     </g>
     <g id="text_9">
      <!-- 0.6 -->
      <defs>
       <path d="M 38.40625 63.796875 
L 39.203125 61.90625 
Q 26.703125 57.203125 19.25 45.84375 
Q 11.796875 34.5 11.796875 21.5 
Q 11.796875 12.90625 15.390625 6.75 
Q 19 0.59375 24.203125 0.59375 
Q 35.40625 0.59375 35.40625 18.40625 
Q 35.40625 25.90625 32.5 30.09375 
Q 29.59375 34.296875 25.203125 34.296875 
Q 23.5 34.296875 21.90625 33.59375 
L 20.796875 35.203125 
Q 24 36.59375 27.296875 36.59375 
Q 33.90625 36.59375 38.25 31.59375 
Q 42.59375 26.59375 42.59375 17.90625 
Q 42.59375 9.59375 37.4375 4 
Q 32.296875 -1.59375 24.09375 -1.59375 
Q 15.59375 -1.59375 10.25 5.046875 
Q 4.90625 11.703125 4.90625 23.09375 
Q 4.90625 36.90625 13.953125 48.25 
Q 23 59.59375 38.40625 63.796875 
z
" id="STKaiti-54"/>
      </defs>
      <g transform="translate(50.85625 313.998985)scale(0.2 -0.2)">
       <use xlink:href="#STKaiti-48"/>
       <use x="46.899994" xlink:href="#STKaiti-46"/>
       <use x="68.799988" xlink:href="#STKaiti-54"/>
      </g>
     </g>
    </g>
    <g id="ytick_5">
     <g id="line2d_9">
      <g>
       <use style="stroke:#000000;stroke-width:0.8;" x="81" xlink:href="#m00ab7a00b2" y="264.215487"/>
      </g>
     </g>
     <g id="text_10">
      <!-- 0.8 -->
      <defs>
       <path d="M 19.796875 31.203125 
Q 7.703125 37.203125 7.703125 47.5 
Q 7.703125 53.703125 12.640625 58.59375 
Q 17.59375 63.5 24.296875 63.5 
Q 31.90625 63.5 36.59375 59.390625 
Q 41.296875 55.296875 41.296875 49.09375 
Q 41.296875 43.703125 38.296875 40.390625 
Q 35.296875 37.09375 29.703125 34.296875 
Q 38.90625 29.90625 41.5 25.40625 
Q 44.09375 20.90625 44.09375 16.40625 
Q 44.09375 9.09375 38.640625 3.75 
Q 33.203125 -1.59375 25.09375 -1.59375 
Q 16.703125 -1.59375 11.703125 3.046875 
Q 6.703125 7.703125 6.703125 14.796875 
Q 6.703125 19.09375 8.703125 23.25 
Q 10.703125 27.40625 19.796875 31.203125 
z
M 27.5 35.5 
Q 31.59375 37.40625 33.796875 41.046875 
Q 36 44.703125 36 49 
Q 36 54.296875 32.953125 57.75 
Q 29.90625 61.203125 24.5 61.203125 
Q 19.59375 61.203125 16.5 57.84375 
Q 13.40625 54.5 13.40625 49.59375 
Q 13.40625 47.09375 14.296875 44.6875 
Q 15.203125 42.296875 19.25 39.5 
Q 23.296875 36.703125 27.5 35.5 
z
M 22.203125 30.09375 
Q 17.09375 27.59375 14.890625 23.9375 
Q 12.703125 20.296875 12.703125 14.203125 
Q 12.703125 8.09375 16.203125 4.4375 
Q 19.703125 0.796875 25 0.796875 
Q 30.5 0.796875 34.140625 4.4375 
Q 37.796875 8.09375 37.796875 13.796875 
Q 37.796875 19.796875 34.140625 23.390625 
Q 30.5 27 22.203125 30.09375 
z
" id="STKaiti-56"/>
      </defs>
      <g transform="translate(50.85625 270.815487)scale(0.2 -0.2)">
       <use xlink:href="#STKaiti-48"/>
       <use x="46.899994" xlink:href="#STKaiti-46"/>
       <use x="68.799988" xlink:href="#STKaiti-56"/>
      </g>
     </g>
    </g>
    <g id="ytick_6">
     <g id="line2d_10">
      <g>
       <use style="stroke:#000000;stroke-width:0.8;" x="81" xlink:href="#m00ab7a00b2" y="221.031988"/>
      </g>
     </g>
     <g id="text_11">
      <!-- 1.0 -->
      <g transform="translate(50.85625 227.631988)scale(0.2 -0.2)">
       <use xlink:href="#STKaiti-49"/>
       <use x="46.899994" xlink:href="#STKaiti-46"/>
       <use x="68.799988" xlink:href="#STKaiti-48"/>
      </g>
     </g>
    </g>
    <g id="ytick_7">
     <g id="line2d_11">
      <g>
       <use style="stroke:#000000;stroke-width:0.8;" x="81" xlink:href="#m00ab7a00b2" y="177.84849"/>
      </g>
     </g>
     <g id="text_12">
      <!-- 1.2 -->
      <g transform="translate(50.85625 184.44849)scale(0.2 -0.2)">
       <use xlink:href="#STKaiti-49"/>
       <use x="46.899994" xlink:href="#STKaiti-46"/>
       <use x="68.799988" xlink:href="#STKaiti-50"/>
      </g>
     </g>
    </g>
    <g id="ytick_8">
     <g id="line2d_12">
      <g>
       <use style="stroke:#000000;stroke-width:0.8;" x="81" xlink:href="#m00ab7a00b2" y="134.664991"/>
      </g>
     </g>
     <g id="text_13">
      <!-- 1.4 -->
      <g transform="translate(50.85625 141.264991)scale(0.2 -0.2)">
       <use xlink:href="#STKaiti-49"/>
       <use x="46.899994" xlink:href="#STKaiti-46"/>
       <use x="68.799988" xlink:href="#STKaiti-52"/>
      </g>
     </g>
    </g>
    <g id="ytick_9">
     <g id="line2d_13">
      <g>
       <use style="stroke:#000000;stroke-width:0.8;" x="81" xlink:href="#m00ab7a00b2" y="91.481493"/>
      </g>
     </g>
     <g id="text_14">
      <!-- 1.6 -->
      <g transform="translate(50.85625 98.081493)scale(0.2 -0.2)">
       <use xlink:href="#STKaiti-49"/>
       <use x="46.899994" xlink:href="#STKaiti-46"/>
       <use x="68.799988" xlink:href="#STKaiti-54"/>
      </g>
     </g>
    </g>
    <g id="text_15">
     <!-- MSE -->
     <defs>
      <path d="M 82.5 -0.296875 
Q 72.90625 0 68.203125 0 
Q 62 0 53.90625 -0.296875 
L 53.90625 1.296875 
L 59.90625 2.5 
Q 62.203125 3 62.796875 4 
Q 63.40625 5 63.40625 7.90625 
L 63.40625 54.59375 
L 41 -0.796875 
L 14.40625 58.90625 
L 14.40625 7.296875 
Q 14.40625 2.59375 17.40625 2.296875 
L 26.59375 1.296875 
L 26.59375 -0.296875 
Q 20.59375 0 13.703125 0 
Q 8.59375 0 0.703125 -0.296875 
L 0.703125 1.296875 
L 6.203125 2.296875 
Q 10 3 10.75 3.953125 
Q 11.5 4.90625 11.5 7.296875 
L 11.5 60.09375 
L 2.40625 61.203125 
L 2.40625 62.796875 
Q 4.09375 62.5 12 62.5 
Q 18.703125 62.5 21.203125 62.796875 
L 43.40625 13.203125 
L 63.59375 62.796875 
Q 68.5 62.5 73.40625 62.5 
Q 78.203125 62.5 82.40625 62.796875 
L 82.40625 61.203125 
L 76.203125 59.90625 
Q 73.296875 59.296875 72.1875 58.09375 
Q 71.09375 56.90625 71.09375 54 
L 71.09375 8.59375 
Q 71.09375 5.5 71.640625 4.453125 
Q 72.203125 3.40625 74 3 
L 82.5 1.296875 
z
" id="STKaiti-77"/>
      <path d="M 63.296875 16.203125 
Q 61.09375 7 60.796875 -0.296875 
Q 48.40625 0 31.59375 0 
Q 14.796875 0 2.40625 -0.296875 
L 2.40625 1.40625 
L 9.59375 1.90625 
Q 11.296875 2 11.9375 2.59375 
Q 12.59375 3.203125 12.59375 5.40625 
L 12.59375 55.703125 
Q 12.59375 58.09375 12.046875 59.140625 
Q 11.5 60.203125 10.09375 60.296875 
L 2.796875 61 
L 2.796875 62.796875 
Q 10.90625 62.5 29.703125 62.5 
Q 48.703125 62.5 56.59375 62.796875 
Q 56.296875 59.703125 56.296875 55.40625 
Q 56.296875 52.09375 56.5 48.90625 
L 55.203125 48.90625 
Q 53 54.40625 51.796875 56.75 
Q 50.59375 59.09375 49.59375 59.796875 
Q 48.59375 60.5 46.90625 60.5 
L 23.703125 60.5 
Q 22 60.5 21.390625 59.546875 
Q 20.796875 58.59375 20.796875 56.296875 
L 20.796875 33.296875 
L 43.296875 33.296875 
Q 45 33.296875 45.796875 33.84375 
Q 46.59375 34.40625 47 36.296875 
L 48.296875 43.296875 
L 50.296875 43.296875 
Q 50 37.40625 50 31.296875 
Q 50 25.296875 50.296875 19.296875 
L 49.09375 19.296875 
L 46.90625 27.09375 
Q 46.203125 29.296875 44.890625 30.140625 
Q 43.59375 31 41 31 
L 20.796875 31 
L 20.796875 6.09375 
Q 20.796875 3.90625 21.59375 3.046875 
Q 22.40625 2.203125 25 2.203125 
L 47.203125 2.203125 
Q 50.203125 2.203125 52.25 3.140625 
Q 54.296875 4.09375 56.4375 7.09375 
Q 58.59375 10.09375 61.296875 16.203125 
z
" id="STKaiti-69"/>
     </defs>
     <g transform="translate(41.715625 274.199687)rotate(-90)scale(0.2 -0.2)">
      <use xlink:href="#STKaiti-77"/>
      <use x="83.299988" xlink:href="#STKaiti-83"/>
      <use x="131.199982" xlink:href="#STKaiti-69"/>
     </g>
    </g>
   </g>
   <g id="line2d_14">
    <path clip-path="url(#p498cb1aab2)" d="M 103.827273 78.12 
L 105.778322 371.267433 
L 107.729371 386.924386 
L 109.68042 396.138766 
L 111.631469 401.806952 
L 115.533566 406.392668 
L 117.484615 409.500894 
L 119.435664 411.015305 
L 121.386713 411.956986 
L 123.337762 412.194165 
L 125.288811 412.937676 
L 127.23986 415.494819 
L 129.190909 415.194381 
L 131.141958 417.194075 
L 133.093007 417.866611 
L 135.044056 417.361862 
L 136.995105 418.36793 
L 138.946154 418.142336 
L 140.897203 418.539706 
L 142.848252 417.825962 
L 144.799301 420.270333 
L 146.75035 419.635356 
L 148.701399 419.621268 
L 150.652448 421.244456 
L 152.603497 418.933329 
L 154.554545 420.216594 
L 156.505594 422.080075 
L 160.407692 421.699449 
L 162.358741 421.8422 
L 166.260839 423.041889 
L 168.211888 421.134237 
L 170.162937 423.048002 
L 172.113986 423.072202 
L 174.065035 421.970454 
L 176.016084 422.865792 
L 177.967133 423.97935 
L 179.918182 422.504691 
L 181.869231 422.511399 
L 183.82028 423.900921 
L 185.771329 424.165808 
L 187.722378 424.924008 
L 189.673427 425.862413 
L 191.624476 424.166941 
L 193.575524 424.127413 
L 195.526573 424.492514 
L 197.477622 425.199669 
L 199.428671 424.913238 
L 201.37972 425.220721 
L 203.330769 424.392677 
L 205.281818 424.781127 
L 207.232867 424.666584 
L 209.183916 425.372148 
L 211.134965 424.900187 
L 213.086014 425.005128 
L 215.037063 424.711911 
L 216.988112 425.838124 
L 218.939161 425.461558 
L 220.89021 425.262719 
L 222.841259 425.968086 
L 224.792308 426.272312 
L 226.743357 425.914824 
L 228.694406 425.768508 
L 230.645455 425.429624 
L 232.596503 425.531344 
L 234.547552 424.814273 
L 236.498601 425.384178 
L 238.44965 425.052158 
L 240.400699 426.092766 
L 242.351748 426.449425 
L 244.302797 425.795156 
L 246.253846 426.115376 
L 248.204895 426.29232 
L 250.155944 426.597667 
L 252.106993 427.049647 
L 254.058042 426.289673 
L 256.009091 427.30672 
L 257.96014 427.348576 
L 259.911189 425.946558 
L 261.862238 426.406901 
L 263.813287 427.448457 
L 265.764336 426.86245 
L 267.715385 427.340554 
L 269.666434 428.014977 
L 271.617483 424.219215 
L 273.568531 425.578282 
L 275.51958 427.518341 
L 277.470629 427.278628 
L 279.421678 426.652227 
L 281.372727 427.390891 
L 283.323776 427.154957 
L 285.274825 428.315322 
L 287.225874 426.686176 
L 289.176923 427.586343 
L 291.127972 426.977792 
L 293.079021 427.305055 
L 295.03007 427.255955 
L 296.981119 427.765873 
L 300.883217 428.340817 
L 302.834266 427.211857 
L 304.785315 427.542264 
L 306.736364 427.681077 
L 308.687413 427.677666 
L 310.638462 428.954544 
L 312.58951 427.413544 
L 314.540559 427.396459 
L 316.491608 428.341269 
L 320.393706 428.118044 
L 322.344755 427.285321 
L 324.295804 427.582195 
L 326.246853 426.844064 
L 328.197902 427.537306 
L 330.148951 427.303802 
L 332.1 427.701167 
L 334.051049 428.98173 
L 336.002098 427.704161 
L 337.953147 427.128038 
L 339.904196 428.553596 
L 341.855245 428.012664 
L 343.806294 428.335948 
L 345.757343 428.158345 
L 347.708392 428.173259 
L 349.659441 428.619777 
L 351.61049 427.829284 
L 353.561538 429.097372 
L 357.463636 428.52349 
L 359.414685 428.121304 
L 361.365734 428.81041 
L 363.316783 427.416514 
L 365.267832 428.318242 
L 367.218881 429.688744 
L 369.16993 427.91113 
L 373.072028 429.838227 
L 375.023077 428.885767 
L 376.974126 429.197334 
L 378.925175 428.74679 
L 380.876224 428.687547 
L 382.827273 428.402166 
L 384.778322 428.967937 
L 386.729371 428.286477 
L 388.68042 429.056218 
L 390.631469 429.025633 
L 392.582517 428.395094 
L 394.533566 428.977318 
L 396.484615 429.092932 
L 398.435664 429.556859 
L 400.386713 428.319483 
L 402.337762 429.335743 
L 404.288811 428.835335 
L 406.23986 428.673878 
L 408.190909 428.830751 
L 410.141958 428.633871 
L 412.093007 429.052801 
L 414.044056 428.589828 
L 415.995105 427.847089 
L 419.897203 429.493894 
L 421.848252 428.709991 
L 423.799301 428.260209 
L 425.75035 429.241095 
L 427.701399 428.157056 
L 429.652448 428.70952 
L 431.603497 428.688567 
L 433.554545 428.52007 
L 435.505594 429.627981 
L 437.456643 429.067338 
L 439.407692 429.370165 
L 443.30979 428.181549 
L 445.260839 428.735454 
L 447.211888 429.445165 
L 449.162937 428.850573 
L 451.113986 428.88264 
L 453.065035 429.503855 
L 455.016084 428.213555 
L 456.967133 428.326596 
L 458.918182 429.470693 
L 460.869231 429.774738 
L 464.771329 429.142586 
L 466.722378 429.022464 
L 468.673427 429.05328 
L 470.624476 428.641587 
L 472.575524 429.057865 
L 474.526573 428.923747 
L 476.477622 429.517508 
L 478.428671 428.508389 
L 480.37972 429.404223 
L 482.330769 429.232904 
L 484.281818 429.344934 
L 486.232867 429.628512 
L 490.134965 429.503549 
L 492.086014 428.959319 
L 494.037063 429.654665 
L 495.988112 429.350683 
L 497.939161 429.694695 
L 499.89021 429.886819 
L 501.841259 429.272754 
L 505.743357 429.930284 
L 507.694406 429.040222 
L 509.645455 428.927251 
L 511.596503 430.460127 
L 513.547552 428.752043 
L 515.498601 428.660608 
L 517.44965 429.25075 
L 519.400699 429.162046 
L 521.351748 429.234023 
L 523.302797 429.788917 
L 525.253846 429.59712 
L 527.204895 430.139582 
L 529.155944 430.373921 
L 531.106993 430.030437 
L 533.058042 429.921557 
L 535.009091 429.091461 
L 536.96014 429.402352 
L 538.911189 430.320603 
L 540.862238 429.739142 
L 544.764336 430.438261 
L 546.715385 428.894305 
L 548.666434 429.389631 
L 550.617483 430.832351 
L 552.568531 429.8403 
L 554.51958 430.206228 
L 556.470629 430.92 
L 558.421678 429.651169 
L 560.372727 429.678843 
L 560.372727 429.678843 
" style="fill:none;stroke:#1f77b4;stroke-linecap:square;stroke-width:1.5;"/>
    <defs>
     <path d="M -3 3 
L 3 3 
L 3 -3 
L -3 -3 
z
" id="m9b05ec7a97" style="stroke:#1f77b4;stroke-linejoin:miter;"/>
    </defs>
    <g clip-path="url(#p498cb1aab2)">
     <use style="fill:#1f77b4;stroke:#1f77b4;stroke-linejoin:miter;" x="103.827273" xlink:href="#m9b05ec7a97" y="78.12"/>
     <use style="fill:#1f77b4;stroke:#1f77b4;stroke-linejoin:miter;" x="105.778322" xlink:href="#m9b05ec7a97" y="371.267433"/>
     <use style="fill:#1f77b4;stroke:#1f77b4;stroke-linejoin:miter;" x="107.729371" xlink:href="#m9b05ec7a97" y="386.924386"/>
     <use style="fill:#1f77b4;stroke:#1f77b4;stroke-linejoin:miter;" x="109.68042" xlink:href="#m9b05ec7a97" y="396.138766"/>
     <use style="fill:#1f77b4;stroke:#1f77b4;stroke-linejoin:miter;" x="111.631469" xlink:href="#m9b05ec7a97" y="401.806952"/>
     <use style="fill:#1f77b4;stroke:#1f77b4;stroke-linejoin:miter;" x="113.582517" xlink:href="#m9b05ec7a97" y="404.176309"/>
     <use style="fill:#1f77b4;stroke:#1f77b4;stroke-linejoin:miter;" x="115.533566" xlink:href="#m9b05ec7a97" y="406.392668"/>
     <use style="fill:#1f77b4;stroke:#1f77b4;stroke-linejoin:miter;" x="117.484615" xlink:href="#m9b05ec7a97" y="409.500894"/>
     <use style="fill:#1f77b4;stroke:#1f77b4;stroke-linejoin:miter;" x="119.435664" xlink:href="#m9b05ec7a97" y="411.015305"/>
     <use style="fill:#1f77b4;stroke:#1f77b4;stroke-linejoin:miter;" x="121.386713" xlink:href="#m9b05ec7a97" y="411.956986"/>
     <use style="fill:#1f77b4;stroke:#1f77b4;stroke-linejoin:miter;" x="123.337762" xlink:href="#m9b05ec7a97" y="412.194165"/>
     <use style="fill:#1f77b4;stroke:#1f77b4;stroke-linejoin:miter;" x="125.288811" xlink:href="#m9b05ec7a97" y="412.937676"/>
     <use style="fill:#1f77b4;stroke:#1f77b4;stroke-linejoin:miter;" x="127.23986" xlink:href="#m9b05ec7a97" y="415.494819"/>
     <use style="fill:#1f77b4;stroke:#1f77b4;stroke-linejoin:miter;" x="129.190909" xlink:href="#m9b05ec7a97" y="415.194381"/>
     <use style="fill:#1f77b4;stroke:#1f77b4;stroke-linejoin:miter;" x="131.141958" xlink:href="#m9b05ec7a97" y="417.194075"/>
     <use style="fill:#1f77b4;stroke:#1f77b4;stroke-linejoin:miter;" x="133.093007" xlink:href="#m9b05ec7a97" y="417.866611"/>
     <use style="fill:#1f77b4;stroke:#1f77b4;stroke-linejoin:miter;" x="135.044056" xlink:href="#m9b05ec7a97" y="417.361862"/>
     <use style="fill:#1f77b4;stroke:#1f77b4;stroke-linejoin:miter;" x="136.995105" xlink:href="#m9b05ec7a97" y="418.36793"/>
     <use style="fill:#1f77b4;stroke:#1f77b4;stroke-linejoin:miter;" x="138.946154" xlink:href="#m9b05ec7a97" y="418.142336"/>
     <use style="fill:#1f77b4;stroke:#1f77b4;stroke-linejoin:miter;" x="140.897203" xlink:href="#m9b05ec7a97" y="418.539706"/>
     <use style="fill:#1f77b4;stroke:#1f77b4;stroke-linejoin:miter;" x="142.848252" xlink:href="#m9b05ec7a97" y="417.825962"/>
     <use style="fill:#1f77b4;stroke:#1f77b4;stroke-linejoin:miter;" x="144.799301" xlink:href="#m9b05ec7a97" y="420.270333"/>
     <use style="fill:#1f77b4;stroke:#1f77b4;stroke-linejoin:miter;" x="146.75035" xlink:href="#m9b05ec7a97" y="419.635356"/>
     <use style="fill:#1f77b4;stroke:#1f77b4;stroke-linejoin:miter;" x="148.701399" xlink:href="#m9b05ec7a97" y="419.621268"/>
     <use style="fill:#1f77b4;stroke:#1f77b4;stroke-linejoin:miter;" x="150.652448" xlink:href="#m9b05ec7a97" y="421.244456"/>
     <use style="fill:#1f77b4;stroke:#1f77b4;stroke-linejoin:miter;" x="152.603497" xlink:href="#m9b05ec7a97" y="418.933329"/>
     <use style="fill:#1f77b4;stroke:#1f77b4;stroke-linejoin:miter;" x="154.554545" xlink:href="#m9b05ec7a97" y="420.216594"/>
     <use style="fill:#1f77b4;stroke:#1f77b4;stroke-linejoin:miter;" x="156.505594" xlink:href="#m9b05ec7a97" y="422.080075"/>
     <use style="fill:#1f77b4;stroke:#1f77b4;stroke-linejoin:miter;" x="158.456643" xlink:href="#m9b05ec7a97" y="421.894861"/>
     <use style="fill:#1f77b4;stroke:#1f77b4;stroke-linejoin:miter;" x="160.407692" xlink:href="#m9b05ec7a97" y="421.699449"/>
     <use style="fill:#1f77b4;stroke:#1f77b4;stroke-linejoin:miter;" x="162.358741" xlink:href="#m9b05ec7a97" y="421.8422"/>
     <use style="fill:#1f77b4;stroke:#1f77b4;stroke-linejoin:miter;" x="164.30979" xlink:href="#m9b05ec7a97" y="422.404563"/>
     <use style="fill:#1f77b4;stroke:#1f77b4;stroke-linejoin:miter;" x="166.260839" xlink:href="#m9b05ec7a97" y="423.041889"/>
     <use style="fill:#1f77b4;stroke:#1f77b4;stroke-linejoin:miter;" x="168.211888" xlink:href="#m9b05ec7a97" y="421.134237"/>
     <use style="fill:#1f77b4;stroke:#1f77b4;stroke-linejoin:miter;" x="170.162937" xlink:href="#m9b05ec7a97" y="423.048002"/>
     <use style="fill:#1f77b4;stroke:#1f77b4;stroke-linejoin:miter;" x="172.113986" xlink:href="#m9b05ec7a97" y="423.072202"/>
     <use style="fill:#1f77b4;stroke:#1f77b4;stroke-linejoin:miter;" x="174.065035" xlink:href="#m9b05ec7a97" y="421.970454"/>
     <use style="fill:#1f77b4;stroke:#1f77b4;stroke-linejoin:miter;" x="176.016084" xlink:href="#m9b05ec7a97" y="422.865792"/>
     <use style="fill:#1f77b4;stroke:#1f77b4;stroke-linejoin:miter;" x="177.967133" xlink:href="#m9b05ec7a97" y="423.97935"/>
     <use style="fill:#1f77b4;stroke:#1f77b4;stroke-linejoin:miter;" x="179.918182" xlink:href="#m9b05ec7a97" y="422.504691"/>
     <use style="fill:#1f77b4;stroke:#1f77b4;stroke-linejoin:miter;" x="181.869231" xlink:href="#m9b05ec7a97" y="422.511399"/>
     <use style="fill:#1f77b4;stroke:#1f77b4;stroke-linejoin:miter;" x="183.82028" xlink:href="#m9b05ec7a97" y="423.900921"/>
     <use style="fill:#1f77b4;stroke:#1f77b4;stroke-linejoin:miter;" x="185.771329" xlink:href="#m9b05ec7a97" y="424.165808"/>
     <use style="fill:#1f77b4;stroke:#1f77b4;stroke-linejoin:miter;" x="187.722378" xlink:href="#m9b05ec7a97" y="424.924008"/>
     <use style="fill:#1f77b4;stroke:#1f77b4;stroke-linejoin:miter;" x="189.673427" xlink:href="#m9b05ec7a97" y="425.862413"/>
     <use style="fill:#1f77b4;stroke:#1f77b4;stroke-linejoin:miter;" x="191.624476" xlink:href="#m9b05ec7a97" y="424.166941"/>
     <use style="fill:#1f77b4;stroke:#1f77b4;stroke-linejoin:miter;" x="193.575524" xlink:href="#m9b05ec7a97" y="424.127413"/>
     <use style="fill:#1f77b4;stroke:#1f77b4;stroke-linejoin:miter;" x="195.526573" xlink:href="#m9b05ec7a97" y="424.492514"/>
     <use style="fill:#1f77b4;stroke:#1f77b4;stroke-linejoin:miter;" x="197.477622" xlink:href="#m9b05ec7a97" y="425.199669"/>
     <use style="fill:#1f77b4;stroke:#1f77b4;stroke-linejoin:miter;" x="199.428671" xlink:href="#m9b05ec7a97" y="424.913238"/>
     <use style="fill:#1f77b4;stroke:#1f77b4;stroke-linejoin:miter;" x="201.37972" xlink:href="#m9b05ec7a97" y="425.220721"/>
     <use style="fill:#1f77b4;stroke:#1f77b4;stroke-linejoin:miter;" x="203.330769" xlink:href="#m9b05ec7a97" y="424.392677"/>
     <use style="fill:#1f77b4;stroke:#1f77b4;stroke-linejoin:miter;" x="205.281818" xlink:href="#m9b05ec7a97" y="424.781127"/>
     <use style="fill:#1f77b4;stroke:#1f77b4;stroke-linejoin:miter;" x="207.232867" xlink:href="#m9b05ec7a97" y="424.666584"/>
     <use style="fill:#1f77b4;stroke:#1f77b4;stroke-linejoin:miter;" x="209.183916" xlink:href="#m9b05ec7a97" y="425.372148"/>
     <use style="fill:#1f77b4;stroke:#1f77b4;stroke-linejoin:miter;" x="211.134965" xlink:href="#m9b05ec7a97" y="424.900187"/>
     <use style="fill:#1f77b4;stroke:#1f77b4;stroke-linejoin:miter;" x="213.086014" xlink:href="#m9b05ec7a97" y="425.005128"/>
     <use style="fill:#1f77b4;stroke:#1f77b4;stroke-linejoin:miter;" x="215.037063" xlink:href="#m9b05ec7a97" y="424.711911"/>
     <use style="fill:#1f77b4;stroke:#1f77b4;stroke-linejoin:miter;" x="216.988112" xlink:href="#m9b05ec7a97" y="425.838124"/>
     <use style="fill:#1f77b4;stroke:#1f77b4;stroke-linejoin:miter;" x="218.939161" xlink:href="#m9b05ec7a97" y="425.461558"/>
     <use style="fill:#1f77b4;stroke:#1f77b4;stroke-linejoin:miter;" x="220.89021" xlink:href="#m9b05ec7a97" y="425.262719"/>
     <use style="fill:#1f77b4;stroke:#1f77b4;stroke-linejoin:miter;" x="222.841259" xlink:href="#m9b05ec7a97" y="425.968086"/>
     <use style="fill:#1f77b4;stroke:#1f77b4;stroke-linejoin:miter;" x="224.792308" xlink:href="#m9b05ec7a97" y="426.272312"/>
     <use style="fill:#1f77b4;stroke:#1f77b4;stroke-linejoin:miter;" x="226.743357" xlink:href="#m9b05ec7a97" y="425.914824"/>
     <use style="fill:#1f77b4;stroke:#1f77b4;stroke-linejoin:miter;" x="228.694406" xlink:href="#m9b05ec7a97" y="425.768508"/>
     <use style="fill:#1f77b4;stroke:#1f77b4;stroke-linejoin:miter;" x="230.645455" xlink:href="#m9b05ec7a97" y="425.429624"/>
     <use style="fill:#1f77b4;stroke:#1f77b4;stroke-linejoin:miter;" x="232.596503" xlink:href="#m9b05ec7a97" y="425.531344"/>
     <use style="fill:#1f77b4;stroke:#1f77b4;stroke-linejoin:miter;" x="234.547552" xlink:href="#m9b05ec7a97" y="424.814273"/>
     <use style="fill:#1f77b4;stroke:#1f77b4;stroke-linejoin:miter;" x="236.498601" xlink:href="#m9b05ec7a97" y="425.384178"/>
     <use style="fill:#1f77b4;stroke:#1f77b4;stroke-linejoin:miter;" x="238.44965" xlink:href="#m9b05ec7a97" y="425.052158"/>
     <use style="fill:#1f77b4;stroke:#1f77b4;stroke-linejoin:miter;" x="240.400699" xlink:href="#m9b05ec7a97" y="426.092766"/>
     <use style="fill:#1f77b4;stroke:#1f77b4;stroke-linejoin:miter;" x="242.351748" xlink:href="#m9b05ec7a97" y="426.449425"/>
     <use style="fill:#1f77b4;stroke:#1f77b4;stroke-linejoin:miter;" x="244.302797" xlink:href="#m9b05ec7a97" y="425.795156"/>
     <use style="fill:#1f77b4;stroke:#1f77b4;stroke-linejoin:miter;" x="246.253846" xlink:href="#m9b05ec7a97" y="426.115376"/>
     <use style="fill:#1f77b4;stroke:#1f77b4;stroke-linejoin:miter;" x="248.204895" xlink:href="#m9b05ec7a97" y="426.29232"/>
     <use style="fill:#1f77b4;stroke:#1f77b4;stroke-linejoin:miter;" x="250.155944" xlink:href="#m9b05ec7a97" y="426.597667"/>
     <use style="fill:#1f77b4;stroke:#1f77b4;stroke-linejoin:miter;" x="252.106993" xlink:href="#m9b05ec7a97" y="427.049647"/>
     <use style="fill:#1f77b4;stroke:#1f77b4;stroke-linejoin:miter;" x="254.058042" xlink:href="#m9b05ec7a97" y="426.289673"/>
     <use style="fill:#1f77b4;stroke:#1f77b4;stroke-linejoin:miter;" x="256.009091" xlink:href="#m9b05ec7a97" y="427.30672"/>
     <use style="fill:#1f77b4;stroke:#1f77b4;stroke-linejoin:miter;" x="257.96014" xlink:href="#m9b05ec7a97" y="427.348576"/>
     <use style="fill:#1f77b4;stroke:#1f77b4;stroke-linejoin:miter;" x="259.911189" xlink:href="#m9b05ec7a97" y="425.946558"/>
     <use style="fill:#1f77b4;stroke:#1f77b4;stroke-linejoin:miter;" x="261.862238" xlink:href="#m9b05ec7a97" y="426.406901"/>
     <use style="fill:#1f77b4;stroke:#1f77b4;stroke-linejoin:miter;" x="263.813287" xlink:href="#m9b05ec7a97" y="427.448457"/>
     <use style="fill:#1f77b4;stroke:#1f77b4;stroke-linejoin:miter;" x="265.764336" xlink:href="#m9b05ec7a97" y="426.86245"/>
     <use style="fill:#1f77b4;stroke:#1f77b4;stroke-linejoin:miter;" x="267.715385" xlink:href="#m9b05ec7a97" y="427.340554"/>
     <use style="fill:#1f77b4;stroke:#1f77b4;stroke-linejoin:miter;" x="269.666434" xlink:href="#m9b05ec7a97" y="428.014977"/>
     <use style="fill:#1f77b4;stroke:#1f77b4;stroke-linejoin:miter;" x="271.617483" xlink:href="#m9b05ec7a97" y="424.219215"/>
     <use style="fill:#1f77b4;stroke:#1f77b4;stroke-linejoin:miter;" x="273.568531" xlink:href="#m9b05ec7a97" y="425.578282"/>
     <use style="fill:#1f77b4;stroke:#1f77b4;stroke-linejoin:miter;" x="275.51958" xlink:href="#m9b05ec7a97" y="427.518341"/>
     <use style="fill:#1f77b4;stroke:#1f77b4;stroke-linejoin:miter;" x="277.470629" xlink:href="#m9b05ec7a97" y="427.278628"/>
     <use style="fill:#1f77b4;stroke:#1f77b4;stroke-linejoin:miter;" x="279.421678" xlink:href="#m9b05ec7a97" y="426.652227"/>
     <use style="fill:#1f77b4;stroke:#1f77b4;stroke-linejoin:miter;" x="281.372727" xlink:href="#m9b05ec7a97" y="427.390891"/>
     <use style="fill:#1f77b4;stroke:#1f77b4;stroke-linejoin:miter;" x="283.323776" xlink:href="#m9b05ec7a97" y="427.154957"/>
     <use style="fill:#1f77b4;stroke:#1f77b4;stroke-linejoin:miter;" x="285.274825" xlink:href="#m9b05ec7a97" y="428.315322"/>
     <use style="fill:#1f77b4;stroke:#1f77b4;stroke-linejoin:miter;" x="287.225874" xlink:href="#m9b05ec7a97" y="426.686176"/>
     <use style="fill:#1f77b4;stroke:#1f77b4;stroke-linejoin:miter;" x="289.176923" xlink:href="#m9b05ec7a97" y="427.586343"/>
     <use style="fill:#1f77b4;stroke:#1f77b4;stroke-linejoin:miter;" x="291.127972" xlink:href="#m9b05ec7a97" y="426.977792"/>
     <use style="fill:#1f77b4;stroke:#1f77b4;stroke-linejoin:miter;" x="293.079021" xlink:href="#m9b05ec7a97" y="427.305055"/>
     <use style="fill:#1f77b4;stroke:#1f77b4;stroke-linejoin:miter;" x="295.03007" xlink:href="#m9b05ec7a97" y="427.255955"/>
     <use style="fill:#1f77b4;stroke:#1f77b4;stroke-linejoin:miter;" x="296.981119" xlink:href="#m9b05ec7a97" y="427.765873"/>
     <use style="fill:#1f77b4;stroke:#1f77b4;stroke-linejoin:miter;" x="298.932168" xlink:href="#m9b05ec7a97" y="428.0586"/>
     <use style="fill:#1f77b4;stroke:#1f77b4;stroke-linejoin:miter;" x="300.883217" xlink:href="#m9b05ec7a97" y="428.340817"/>
     <use style="fill:#1f77b4;stroke:#1f77b4;stroke-linejoin:miter;" x="302.834266" xlink:href="#m9b05ec7a97" y="427.211857"/>
     <use style="fill:#1f77b4;stroke:#1f77b4;stroke-linejoin:miter;" x="304.785315" xlink:href="#m9b05ec7a97" y="427.542264"/>
     <use style="fill:#1f77b4;stroke:#1f77b4;stroke-linejoin:miter;" x="306.736364" xlink:href="#m9b05ec7a97" y="427.681077"/>
     <use style="fill:#1f77b4;stroke:#1f77b4;stroke-linejoin:miter;" x="308.687413" xlink:href="#m9b05ec7a97" y="427.677666"/>
     <use style="fill:#1f77b4;stroke:#1f77b4;stroke-linejoin:miter;" x="310.638462" xlink:href="#m9b05ec7a97" y="428.954544"/>
     <use style="fill:#1f77b4;stroke:#1f77b4;stroke-linejoin:miter;" x="312.58951" xlink:href="#m9b05ec7a97" y="427.413544"/>
     <use style="fill:#1f77b4;stroke:#1f77b4;stroke-linejoin:miter;" x="314.540559" xlink:href="#m9b05ec7a97" y="427.396459"/>
     <use style="fill:#1f77b4;stroke:#1f77b4;stroke-linejoin:miter;" x="316.491608" xlink:href="#m9b05ec7a97" y="428.341269"/>
     <use style="fill:#1f77b4;stroke:#1f77b4;stroke-linejoin:miter;" x="318.442657" xlink:href="#m9b05ec7a97" y="428.212926"/>
     <use style="fill:#1f77b4;stroke:#1f77b4;stroke-linejoin:miter;" x="320.393706" xlink:href="#m9b05ec7a97" y="428.118044"/>
     <use style="fill:#1f77b4;stroke:#1f77b4;stroke-linejoin:miter;" x="322.344755" xlink:href="#m9b05ec7a97" y="427.285321"/>
     <use style="fill:#1f77b4;stroke:#1f77b4;stroke-linejoin:miter;" x="324.295804" xlink:href="#m9b05ec7a97" y="427.582195"/>
     <use style="fill:#1f77b4;stroke:#1f77b4;stroke-linejoin:miter;" x="326.246853" xlink:href="#m9b05ec7a97" y="426.844064"/>
     <use style="fill:#1f77b4;stroke:#1f77b4;stroke-linejoin:miter;" x="328.197902" xlink:href="#m9b05ec7a97" y="427.537306"/>
     <use style="fill:#1f77b4;stroke:#1f77b4;stroke-linejoin:miter;" x="330.148951" xlink:href="#m9b05ec7a97" y="427.303802"/>
     <use style="fill:#1f77b4;stroke:#1f77b4;stroke-linejoin:miter;" x="332.1" xlink:href="#m9b05ec7a97" y="427.701167"/>
     <use style="fill:#1f77b4;stroke:#1f77b4;stroke-linejoin:miter;" x="334.051049" xlink:href="#m9b05ec7a97" y="428.98173"/>
     <use style="fill:#1f77b4;stroke:#1f77b4;stroke-linejoin:miter;" x="336.002098" xlink:href="#m9b05ec7a97" y="427.704161"/>
     <use style="fill:#1f77b4;stroke:#1f77b4;stroke-linejoin:miter;" x="337.953147" xlink:href="#m9b05ec7a97" y="427.128038"/>
     <use style="fill:#1f77b4;stroke:#1f77b4;stroke-linejoin:miter;" x="339.904196" xlink:href="#m9b05ec7a97" y="428.553596"/>
     <use style="fill:#1f77b4;stroke:#1f77b4;stroke-linejoin:miter;" x="341.855245" xlink:href="#m9b05ec7a97" y="428.012664"/>
     <use style="fill:#1f77b4;stroke:#1f77b4;stroke-linejoin:miter;" x="343.806294" xlink:href="#m9b05ec7a97" y="428.335948"/>
     <use style="fill:#1f77b4;stroke:#1f77b4;stroke-linejoin:miter;" x="345.757343" xlink:href="#m9b05ec7a97" y="428.158345"/>
     <use style="fill:#1f77b4;stroke:#1f77b4;stroke-linejoin:miter;" x="347.708392" xlink:href="#m9b05ec7a97" y="428.173259"/>
     <use style="fill:#1f77b4;stroke:#1f77b4;stroke-linejoin:miter;" x="349.659441" xlink:href="#m9b05ec7a97" y="428.619777"/>
     <use style="fill:#1f77b4;stroke:#1f77b4;stroke-linejoin:miter;" x="351.61049" xlink:href="#m9b05ec7a97" y="427.829284"/>
     <use style="fill:#1f77b4;stroke:#1f77b4;stroke-linejoin:miter;" x="353.561538" xlink:href="#m9b05ec7a97" y="429.097372"/>
     <use style="fill:#1f77b4;stroke:#1f77b4;stroke-linejoin:miter;" x="355.512587" xlink:href="#m9b05ec7a97" y="428.849118"/>
     <use style="fill:#1f77b4;stroke:#1f77b4;stroke-linejoin:miter;" x="357.463636" xlink:href="#m9b05ec7a97" y="428.52349"/>
     <use style="fill:#1f77b4;stroke:#1f77b4;stroke-linejoin:miter;" x="359.414685" xlink:href="#m9b05ec7a97" y="428.121304"/>
     <use style="fill:#1f77b4;stroke:#1f77b4;stroke-linejoin:miter;" x="361.365734" xlink:href="#m9b05ec7a97" y="428.81041"/>
     <use style="fill:#1f77b4;stroke:#1f77b4;stroke-linejoin:miter;" x="363.316783" xlink:href="#m9b05ec7a97" y="427.416514"/>
     <use style="fill:#1f77b4;stroke:#1f77b4;stroke-linejoin:miter;" x="365.267832" xlink:href="#m9b05ec7a97" y="428.318242"/>
     <use style="fill:#1f77b4;stroke:#1f77b4;stroke-linejoin:miter;" x="367.218881" xlink:href="#m9b05ec7a97" y="429.688744"/>
     <use style="fill:#1f77b4;stroke:#1f77b4;stroke-linejoin:miter;" x="369.16993" xlink:href="#m9b05ec7a97" y="427.91113"/>
     <use style="fill:#1f77b4;stroke:#1f77b4;stroke-linejoin:miter;" x="371.120979" xlink:href="#m9b05ec7a97" y="428.84469"/>
     <use style="fill:#1f77b4;stroke:#1f77b4;stroke-linejoin:miter;" x="373.072028" xlink:href="#m9b05ec7a97" y="429.838227"/>
     <use style="fill:#1f77b4;stroke:#1f77b4;stroke-linejoin:miter;" x="375.023077" xlink:href="#m9b05ec7a97" y="428.885767"/>
     <use style="fill:#1f77b4;stroke:#1f77b4;stroke-linejoin:miter;" x="376.974126" xlink:href="#m9b05ec7a97" y="429.197334"/>
     <use style="fill:#1f77b4;stroke:#1f77b4;stroke-linejoin:miter;" x="378.925175" xlink:href="#m9b05ec7a97" y="428.74679"/>
     <use style="fill:#1f77b4;stroke:#1f77b4;stroke-linejoin:miter;" x="380.876224" xlink:href="#m9b05ec7a97" y="428.687547"/>
     <use style="fill:#1f77b4;stroke:#1f77b4;stroke-linejoin:miter;" x="382.827273" xlink:href="#m9b05ec7a97" y="428.402166"/>
     <use style="fill:#1f77b4;stroke:#1f77b4;stroke-linejoin:miter;" x="384.778322" xlink:href="#m9b05ec7a97" y="428.967937"/>
     <use style="fill:#1f77b4;stroke:#1f77b4;stroke-linejoin:miter;" x="386.729371" xlink:href="#m9b05ec7a97" y="428.286477"/>
     <use style="fill:#1f77b4;stroke:#1f77b4;stroke-linejoin:miter;" x="388.68042" xlink:href="#m9b05ec7a97" y="429.056218"/>
     <use style="fill:#1f77b4;stroke:#1f77b4;stroke-linejoin:miter;" x="390.631469" xlink:href="#m9b05ec7a97" y="429.025633"/>
     <use style="fill:#1f77b4;stroke:#1f77b4;stroke-linejoin:miter;" x="392.582517" xlink:href="#m9b05ec7a97" y="428.395094"/>
     <use style="fill:#1f77b4;stroke:#1f77b4;stroke-linejoin:miter;" x="394.533566" xlink:href="#m9b05ec7a97" y="428.977318"/>
     <use style="fill:#1f77b4;stroke:#1f77b4;stroke-linejoin:miter;" x="396.484615" xlink:href="#m9b05ec7a97" y="429.092932"/>
     <use style="fill:#1f77b4;stroke:#1f77b4;stroke-linejoin:miter;" x="398.435664" xlink:href="#m9b05ec7a97" y="429.556859"/>
     <use style="fill:#1f77b4;stroke:#1f77b4;stroke-linejoin:miter;" x="400.386713" xlink:href="#m9b05ec7a97" y="428.319483"/>
     <use style="fill:#1f77b4;stroke:#1f77b4;stroke-linejoin:miter;" x="402.337762" xlink:href="#m9b05ec7a97" y="429.335743"/>
     <use style="fill:#1f77b4;stroke:#1f77b4;stroke-linejoin:miter;" x="404.288811" xlink:href="#m9b05ec7a97" y="428.835335"/>
     <use style="fill:#1f77b4;stroke:#1f77b4;stroke-linejoin:miter;" x="406.23986" xlink:href="#m9b05ec7a97" y="428.673878"/>
     <use style="fill:#1f77b4;stroke:#1f77b4;stroke-linejoin:miter;" x="408.190909" xlink:href="#m9b05ec7a97" y="428.830751"/>
     <use style="fill:#1f77b4;stroke:#1f77b4;stroke-linejoin:miter;" x="410.141958" xlink:href="#m9b05ec7a97" y="428.633871"/>
     <use style="fill:#1f77b4;stroke:#1f77b4;stroke-linejoin:miter;" x="412.093007" xlink:href="#m9b05ec7a97" y="429.052801"/>
     <use style="fill:#1f77b4;stroke:#1f77b4;stroke-linejoin:miter;" x="414.044056" xlink:href="#m9b05ec7a97" y="428.589828"/>
     <use style="fill:#1f77b4;stroke:#1f77b4;stroke-linejoin:miter;" x="415.995105" xlink:href="#m9b05ec7a97" y="427.847089"/>
     <use style="fill:#1f77b4;stroke:#1f77b4;stroke-linejoin:miter;" x="417.946154" xlink:href="#m9b05ec7a97" y="428.714654"/>
     <use style="fill:#1f77b4;stroke:#1f77b4;stroke-linejoin:miter;" x="419.897203" xlink:href="#m9b05ec7a97" y="429.493894"/>
     <use style="fill:#1f77b4;stroke:#1f77b4;stroke-linejoin:miter;" x="421.848252" xlink:href="#m9b05ec7a97" y="428.709991"/>
     <use style="fill:#1f77b4;stroke:#1f77b4;stroke-linejoin:miter;" x="423.799301" xlink:href="#m9b05ec7a97" y="428.260209"/>
     <use style="fill:#1f77b4;stroke:#1f77b4;stroke-linejoin:miter;" x="425.75035" xlink:href="#m9b05ec7a97" y="429.241095"/>
     <use style="fill:#1f77b4;stroke:#1f77b4;stroke-linejoin:miter;" x="427.701399" xlink:href="#m9b05ec7a97" y="428.157056"/>
     <use style="fill:#1f77b4;stroke:#1f77b4;stroke-linejoin:miter;" x="429.652448" xlink:href="#m9b05ec7a97" y="428.70952"/>
     <use style="fill:#1f77b4;stroke:#1f77b4;stroke-linejoin:miter;" x="431.603497" xlink:href="#m9b05ec7a97" y="428.688567"/>
     <use style="fill:#1f77b4;stroke:#1f77b4;stroke-linejoin:miter;" x="433.554545" xlink:href="#m9b05ec7a97" y="428.52007"/>
     <use style="fill:#1f77b4;stroke:#1f77b4;stroke-linejoin:miter;" x="435.505594" xlink:href="#m9b05ec7a97" y="429.627981"/>
     <use style="fill:#1f77b4;stroke:#1f77b4;stroke-linejoin:miter;" x="437.456643" xlink:href="#m9b05ec7a97" y="429.067338"/>
     <use style="fill:#1f77b4;stroke:#1f77b4;stroke-linejoin:miter;" x="439.407692" xlink:href="#m9b05ec7a97" y="429.370165"/>
     <use style="fill:#1f77b4;stroke:#1f77b4;stroke-linejoin:miter;" x="441.358741" xlink:href="#m9b05ec7a97" y="428.748919"/>
     <use style="fill:#1f77b4;stroke:#1f77b4;stroke-linejoin:miter;" x="443.30979" xlink:href="#m9b05ec7a97" y="428.181549"/>
     <use style="fill:#1f77b4;stroke:#1f77b4;stroke-linejoin:miter;" x="445.260839" xlink:href="#m9b05ec7a97" y="428.735454"/>
     <use style="fill:#1f77b4;stroke:#1f77b4;stroke-linejoin:miter;" x="447.211888" xlink:href="#m9b05ec7a97" y="429.445165"/>
     <use style="fill:#1f77b4;stroke:#1f77b4;stroke-linejoin:miter;" x="449.162937" xlink:href="#m9b05ec7a97" y="428.850573"/>
     <use style="fill:#1f77b4;stroke:#1f77b4;stroke-linejoin:miter;" x="451.113986" xlink:href="#m9b05ec7a97" y="428.88264"/>
     <use style="fill:#1f77b4;stroke:#1f77b4;stroke-linejoin:miter;" x="453.065035" xlink:href="#m9b05ec7a97" y="429.503855"/>
     <use style="fill:#1f77b4;stroke:#1f77b4;stroke-linejoin:miter;" x="455.016084" xlink:href="#m9b05ec7a97" y="428.213555"/>
     <use style="fill:#1f77b4;stroke:#1f77b4;stroke-linejoin:miter;" x="456.967133" xlink:href="#m9b05ec7a97" y="428.326596"/>
     <use style="fill:#1f77b4;stroke:#1f77b4;stroke-linejoin:miter;" x="458.918182" xlink:href="#m9b05ec7a97" y="429.470693"/>
     <use style="fill:#1f77b4;stroke:#1f77b4;stroke-linejoin:miter;" x="460.869231" xlink:href="#m9b05ec7a97" y="429.774738"/>
     <use style="fill:#1f77b4;stroke:#1f77b4;stroke-linejoin:miter;" x="462.82028" xlink:href="#m9b05ec7a97" y="429.404926"/>
     <use style="fill:#1f77b4;stroke:#1f77b4;stroke-linejoin:miter;" x="464.771329" xlink:href="#m9b05ec7a97" y="429.142586"/>
     <use style="fill:#1f77b4;stroke:#1f77b4;stroke-linejoin:miter;" x="466.722378" xlink:href="#m9b05ec7a97" y="429.022464"/>
     <use style="fill:#1f77b4;stroke:#1f77b4;stroke-linejoin:miter;" x="468.673427" xlink:href="#m9b05ec7a97" y="429.05328"/>
     <use style="fill:#1f77b4;stroke:#1f77b4;stroke-linejoin:miter;" x="470.624476" xlink:href="#m9b05ec7a97" y="428.641587"/>
     <use style="fill:#1f77b4;stroke:#1f77b4;stroke-linejoin:miter;" x="472.575524" xlink:href="#m9b05ec7a97" y="429.057865"/>
     <use style="fill:#1f77b4;stroke:#1f77b4;stroke-linejoin:miter;" x="474.526573" xlink:href="#m9b05ec7a97" y="428.923747"/>
     <use style="fill:#1f77b4;stroke:#1f77b4;stroke-linejoin:miter;" x="476.477622" xlink:href="#m9b05ec7a97" y="429.517508"/>
     <use style="fill:#1f77b4;stroke:#1f77b4;stroke-linejoin:miter;" x="478.428671" xlink:href="#m9b05ec7a97" y="428.508389"/>
     <use style="fill:#1f77b4;stroke:#1f77b4;stroke-linejoin:miter;" x="480.37972" xlink:href="#m9b05ec7a97" y="429.404223"/>
     <use style="fill:#1f77b4;stroke:#1f77b4;stroke-linejoin:miter;" x="482.330769" xlink:href="#m9b05ec7a97" y="429.232904"/>
     <use style="fill:#1f77b4;stroke:#1f77b4;stroke-linejoin:miter;" x="484.281818" xlink:href="#m9b05ec7a97" y="429.344934"/>
     <use style="fill:#1f77b4;stroke:#1f77b4;stroke-linejoin:miter;" x="486.232867" xlink:href="#m9b05ec7a97" y="429.628512"/>
     <use style="fill:#1f77b4;stroke:#1f77b4;stroke-linejoin:miter;" x="488.183916" xlink:href="#m9b05ec7a97" y="429.554906"/>
     <use style="fill:#1f77b4;stroke:#1f77b4;stroke-linejoin:miter;" x="490.134965" xlink:href="#m9b05ec7a97" y="429.503549"/>
     <use style="fill:#1f77b4;stroke:#1f77b4;stroke-linejoin:miter;" x="492.086014" xlink:href="#m9b05ec7a97" y="428.959319"/>
     <use style="fill:#1f77b4;stroke:#1f77b4;stroke-linejoin:miter;" x="494.037063" xlink:href="#m9b05ec7a97" y="429.654665"/>
     <use style="fill:#1f77b4;stroke:#1f77b4;stroke-linejoin:miter;" x="495.988112" xlink:href="#m9b05ec7a97" y="429.350683"/>
     <use style="fill:#1f77b4;stroke:#1f77b4;stroke-linejoin:miter;" x="497.939161" xlink:href="#m9b05ec7a97" y="429.694695"/>
     <use style="fill:#1f77b4;stroke:#1f77b4;stroke-linejoin:miter;" x="499.89021" xlink:href="#m9b05ec7a97" y="429.886819"/>
     <use style="fill:#1f77b4;stroke:#1f77b4;stroke-linejoin:miter;" x="501.841259" xlink:href="#m9b05ec7a97" y="429.272754"/>
     <use style="fill:#1f77b4;stroke:#1f77b4;stroke-linejoin:miter;" x="503.792308" xlink:href="#m9b05ec7a97" y="429.574337"/>
     <use style="fill:#1f77b4;stroke:#1f77b4;stroke-linejoin:miter;" x="505.743357" xlink:href="#m9b05ec7a97" y="429.930284"/>
     <use style="fill:#1f77b4;stroke:#1f77b4;stroke-linejoin:miter;" x="507.694406" xlink:href="#m9b05ec7a97" y="429.040222"/>
     <use style="fill:#1f77b4;stroke:#1f77b4;stroke-linejoin:miter;" x="509.645455" xlink:href="#m9b05ec7a97" y="428.927251"/>
     <use style="fill:#1f77b4;stroke:#1f77b4;stroke-linejoin:miter;" x="511.596503" xlink:href="#m9b05ec7a97" y="430.460127"/>
     <use style="fill:#1f77b4;stroke:#1f77b4;stroke-linejoin:miter;" x="513.547552" xlink:href="#m9b05ec7a97" y="428.752043"/>
     <use style="fill:#1f77b4;stroke:#1f77b4;stroke-linejoin:miter;" x="515.498601" xlink:href="#m9b05ec7a97" y="428.660608"/>
     <use style="fill:#1f77b4;stroke:#1f77b4;stroke-linejoin:miter;" x="517.44965" xlink:href="#m9b05ec7a97" y="429.25075"/>
     <use style="fill:#1f77b4;stroke:#1f77b4;stroke-linejoin:miter;" x="519.400699" xlink:href="#m9b05ec7a97" y="429.162046"/>
     <use style="fill:#1f77b4;stroke:#1f77b4;stroke-linejoin:miter;" x="521.351748" xlink:href="#m9b05ec7a97" y="429.234023"/>
     <use style="fill:#1f77b4;stroke:#1f77b4;stroke-linejoin:miter;" x="523.302797" xlink:href="#m9b05ec7a97" y="429.788917"/>
     <use style="fill:#1f77b4;stroke:#1f77b4;stroke-linejoin:miter;" x="525.253846" xlink:href="#m9b05ec7a97" y="429.59712"/>
     <use style="fill:#1f77b4;stroke:#1f77b4;stroke-linejoin:miter;" x="527.204895" xlink:href="#m9b05ec7a97" y="430.139582"/>
     <use style="fill:#1f77b4;stroke:#1f77b4;stroke-linejoin:miter;" x="529.155944" xlink:href="#m9b05ec7a97" y="430.373921"/>
     <use style="fill:#1f77b4;stroke:#1f77b4;stroke-linejoin:miter;" x="531.106993" xlink:href="#m9b05ec7a97" y="430.030437"/>
     <use style="fill:#1f77b4;stroke:#1f77b4;stroke-linejoin:miter;" x="533.058042" xlink:href="#m9b05ec7a97" y="429.921557"/>
     <use style="fill:#1f77b4;stroke:#1f77b4;stroke-linejoin:miter;" x="535.009091" xlink:href="#m9b05ec7a97" y="429.091461"/>
     <use style="fill:#1f77b4;stroke:#1f77b4;stroke-linejoin:miter;" x="536.96014" xlink:href="#m9b05ec7a97" y="429.402352"/>
     <use style="fill:#1f77b4;stroke:#1f77b4;stroke-linejoin:miter;" x="538.911189" xlink:href="#m9b05ec7a97" y="430.320603"/>
     <use style="fill:#1f77b4;stroke:#1f77b4;stroke-linejoin:miter;" x="540.862238" xlink:href="#m9b05ec7a97" y="429.739142"/>
     <use style="fill:#1f77b4;stroke:#1f77b4;stroke-linejoin:miter;" x="542.813287" xlink:href="#m9b05ec7a97" y="430.135003"/>
     <use style="fill:#1f77b4;stroke:#1f77b4;stroke-linejoin:miter;" x="544.764336" xlink:href="#m9b05ec7a97" y="430.438261"/>
     <use style="fill:#1f77b4;stroke:#1f77b4;stroke-linejoin:miter;" x="546.715385" xlink:href="#m9b05ec7a97" y="428.894305"/>
     <use style="fill:#1f77b4;stroke:#1f77b4;stroke-linejoin:miter;" x="548.666434" xlink:href="#m9b05ec7a97" y="429.389631"/>
     <use style="fill:#1f77b4;stroke:#1f77b4;stroke-linejoin:miter;" x="550.617483" xlink:href="#m9b05ec7a97" y="430.832351"/>
     <use style="fill:#1f77b4;stroke:#1f77b4;stroke-linejoin:miter;" x="552.568531" xlink:href="#m9b05ec7a97" y="429.8403"/>
     <use style="fill:#1f77b4;stroke:#1f77b4;stroke-linejoin:miter;" x="554.51958" xlink:href="#m9b05ec7a97" y="430.206228"/>
     <use style="fill:#1f77b4;stroke:#1f77b4;stroke-linejoin:miter;" x="556.470629" xlink:href="#m9b05ec7a97" y="430.92"/>
     <use style="fill:#1f77b4;stroke:#1f77b4;stroke-linejoin:miter;" x="558.421678" xlink:href="#m9b05ec7a97" y="429.651169"/>
     <use style="fill:#1f77b4;stroke:#1f77b4;stroke-linejoin:miter;" x="560.372727" xlink:href="#m9b05ec7a97" y="429.678843"/>
    </g>
   </g>
   <g id="patch_3">
    <path d="M 81 448.56 
L 81 60.48 
" style="fill:none;stroke:#000000;stroke-linecap:square;stroke-linejoin:miter;stroke-width:0.8;"/>
   </g>
   <g id="patch_4">
    <path d="M 583.2 448.56 
L 583.2 60.48 
" style="fill:none;stroke:#000000;stroke-linecap:square;stroke-linejoin:miter;stroke-width:0.8;"/>
   </g>
   <g id="patch_5">
    <path d="M 81 448.56 
L 583.2 448.56 
" style="fill:none;stroke:#000000;stroke-linecap:square;stroke-linejoin:miter;stroke-width:0.8;"/>
   </g>
   <g id="patch_6">
    <path d="M 81 60.48 
L 583.2 60.48 
" style="fill:none;stroke:#000000;stroke-linecap:square;stroke-linejoin:miter;stroke-width:0.8;"/>
   </g>
   <g id="legend_1">
    <g id="patch_7">
     <path d="M 465.2 105.620625 
L 569.2 105.620625 
Q 573.2 105.620625 573.2 101.620625 
L 573.2 74.48 
Q 573.2 70.48 569.2 70.48 
L 465.2 70.48 
Q 461.2 70.48 461.2 74.48 
L 461.2 101.620625 
Q 461.2 105.620625 465.2 105.620625 
z
" style="fill:#ffffff;opacity:0.8;stroke:#cccccc;stroke-linejoin:miter;"/>
    </g>
    <g id="line2d_15">
     <path d="M 469.2 85.48 
L 509.2 85.48 
" style="fill:none;stroke:#1f77b4;stroke-linecap:square;stroke-width:1.5;"/>
    </g>
    <g id="line2d_16">
     <g>
      <use style="fill:#1f77b4;stroke:#1f77b4;stroke-linejoin:miter;" x="489.2" xlink:href="#m9b05ec7a97" y="85.48"/>
     </g>
    </g>
    <g id="text_16">
     <!--  -->
     <defs>
      <path d="M 85.90625 64.796875 
Q 85.90625 63.796875 85.296875 62.75 
Q 84.703125 61.703125 84.09375 58.09375 
Q 83.5 54.5 83.5 52.203125 
L 83.5 41.296875 
L 83.40625 24.40625 
Q 83.40625 9 83.65625 6.09375 
Q 83.90625 3.203125 83.90625 -2.4375 
Q 83.90625 -8.09375 82.953125 -10.796875 
Q 82 -13.5 80.953125 -13.5 
Q 79.90625 -13.5 78.203125 -10.25 
Q 76.5 -7 76.546875 -4.75 
Q 76.59375 -2.5 77.703125 3.703125 
Q 78.59375 7.296875 78.59375 32.59375 
Q 78.59375 57.90625 78.296875 62.09375 
Q 78 66.296875 76.84375 67.59375 
Q 75.703125 68.90625 75.703125 69.796875 
Q 75.703125 70.703125 77.09375 70.703125 
Q 78.5 70.703125 82.203125 68.84375 
Q 85.90625 67 85.90625 64.796875 
z
M 26.40625 64.796875 
Q 30.40625 64.796875 33.546875 63.84375 
Q 36.703125 62.90625 37.796875 60.84375 
Q 38.90625 58.796875 38.90625 57 
Q 38.90625 54.40625 36.703125 54.40625 
Q 35 54.40625 32.75 56.09375 
Q 30.5 57.796875 27.390625 60.34375 
Q 24.296875 62.90625 24.296875 63.84375 
Q 24.296875 64.796875 26.40625 64.796875 
z
M 54.5 53.09375 
Q 54.5 52.296875 54.09375 51 
Q 53.703125 49.703125 53.796875 44.796875 
L 53.796875 40 
Q 53.796875 22.703125 51 14.296875 
Q 48.203125 5.90625 42.046875 0.796875 
Q 35.90625 -4.296875 34.203125 -4.296875 
Q 33.59375 -4.296875 33.59375 -3.6875 
Q 33.59375 -3.09375 34.90625 -2 
Q 37.59375 0.40625 42.296875 7.203125 
Q 47 14 48 20.84375 
Q 49 27.703125 49 37.140625 
Q 49 46.59375 48.390625 50.390625 
Q 47.796875 54.203125 47.296875 54.90625 
Q 46.09375 56.90625 46.09375 58 
Q 46.09375 59.09375 47.390625 59.09375 
Q 48.703125 59.09375 51.59375 57.296875 
Q 54.5 55.5 54.5 53.09375 
z
M 69.203125 50.296875 
Q 69.203125 49.59375 68.703125 48.84375 
Q 68.203125 48.09375 67.75 46 
Q 67.296875 43.90625 67.296875 31.546875 
Q 67.296875 19.203125 67.34375 18.390625 
Q 67.40625 17.59375 67.40625 15 
Q 67.40625 12.40625 66.953125 9.5 
Q 66.5 6.59375 65.5 6.59375 
Q 64.5 6.59375 63.203125 9.25 
Q 61.90625 11.90625 61.90625 13.59375 
Q 61.90625 15.296875 63 19.203125 
Q 63.296875 20.296875 63.296875 31.140625 
Q 63.296875 42 63.046875 45.796875 
Q 62.796875 49.59375 62.1875 51.25 
Q 61.59375 52.90625 61.59375 53.796875 
Q 61.59375 54.703125 62.6875 54.703125 
Q 63.796875 54.703125 66.5 53.34375 
Q 69.203125 52 69.203125 50.296875 
z
M 30.296875 14.40625 
Q 41 23.90625 42.90625 23.90625 
Q 43.5 23.90625 43.5 23.25 
Q 43.5 22.59375 42.296875 21.203125 
Q 38.203125 16.5 33.5 10.796875 
Q 28.796875 5.09375 28.296875 4.09375 
Q 26.296875 0.296875 25.09375 0.296875 
Q 23.90625 0.296875 22.5 2.9375 
Q 21.09375 5.59375 21.09375 7.140625 
Q 21.09375 8.703125 22.5 10.09375 
Q 23.90625 11.5 25.046875 14.140625 
Q 26.203125 16.796875 26.640625 24.640625 
Q 27.09375 32.5 27.09375 35.5 
Q 27.09375 38.5 26.4375 38.5 
Q 25.796875 38.5 23.296875 37 
Q 17.5 33.703125 14.203125 33.703125 
Q 12.296875 33.703125 10.390625 35.140625 
Q 8.5 36.59375 8.5 37.296875 
Q 8.5 38.203125 11.796875 38.390625 
Q 15.09375 38.59375 19.1875 39.9375 
Q 23.296875 41.296875 24.796875 42.796875 
Q 26.296875 44.296875 27.140625 44.84375 
Q 28 45.40625 29.25 45.40625 
Q 30.5 45.40625 33.453125 44.65625 
Q 36.40625 43.90625 36.40625 42.59375 
Q 36.40625 41.296875 34.90625 40.09375 
Q 33.40625 38.90625 32.59375 36.34375 
Q 31.796875 33.796875 31.09375 25.390625 
Q 30.40625 17 30.296875 14.40625 
z
" id="STKaiti-35757"/>
      <path d="M 71.40625 28.203125 
Q 75.90625 29.09375 78.65625 29.796875 
Q 81.40625 30.5 83.5 30.5 
Q 87.703125 30.5 89.640625 28.796875 
Q 91.59375 27.09375 91.59375 25.6875 
Q 91.59375 24.296875 88.40625 24.296875 
Q 87.59375 24.296875 84.84375 24.546875 
Q 82.09375 24.796875 78 24.796875 
Q 73.90625 24.796875 71.296875 24.59375 
Q 71.703125 9.59375 71.953125 5.75 
Q 72.203125 1.90625 72.203125 0.59375 
Q 72.203125 -5.09375 69.84375 -8.640625 
Q 67.5 -12.203125 65.90625 -12.203125 
Q 64.90625 -12.203125 64 -10.703125 
Q 61 -5.703125 58.84375 -3.5 
Q 56.703125 -1.296875 56.703125 -0.9375 
Q 56.703125 -0.59375 57.34375 -0.59375 
Q 58 -0.59375 60.34375 -1.25 
Q 62.703125 -1.90625 63.953125 -1.90625 
Q 65.203125 -1.90625 65.84375 -0.75 
Q 66.5 0.40625 66.890625 4.65625 
Q 67.296875 8.90625 67.296875 14.453125 
Q 67.296875 20 67.09375 24.203125 
Q 54.40625 22.40625 50.796875 20.59375 
Q 48.5 19.40625 47.59375 19.40625 
Q 46.703125 19.40625 45.703125 20.84375 
Q 44.703125 22.296875 44.703125 23.203125 
Q 44.703125 24.796875 46.5 25.59375 
Q 49.203125 26.59375 53.203125 34.40625 
Q 50.796875 34.59375 49.4375 35.34375 
Q 48.09375 36.09375 48.09375 36.640625 
Q 48.09375 37.203125 50.84375 37.390625 
Q 53.59375 37.59375 54.796875 37.796875 
Q 57.203125 42.703125 58.90625 47.296875 
Q 53 47.203125 50.703125 47.84375 
Q 48.40625 48.5 48.40625 49.25 
Q 48.40625 50 50.90625 50.203125 
Q 53.40625 50.40625 60.40625 51.40625 
Q 65 64.5 65 66.953125 
Q 65 69.40625 64.546875 70.59375 
Q 64.09375 71.796875 64.09375 72.296875 
Q 64.09375 73.59375 65.796875 73.59375 
Q 67.5 73.59375 70.390625 71.75 
Q 73.296875 69.90625 73.296875 68.09375 
Q 73.296875 67.09375 72.40625 66.203125 
Q 70.203125 63.90625 65.40625 52.296875 
L 78.40625 55.09375 
Q 80.5 55.703125 82.34375 55.703125 
Q 84.203125 55.703125 86.203125 54.640625 
Q 88.203125 53.59375 88.203125 52.703125 
Q 88.203125 51.09375 82.59375 50.140625 
Q 77 49.203125 63.59375 47.703125 
L 58.90625 38.203125 
Q 62.90625 38.90625 64.90625 40.046875 
Q 66.90625 41.203125 68.453125 41.203125 
Q 70 41.203125 71.953125 40.140625 
Q 73.90625 39.09375 73.90625 38.1875 
Q 73.90625 37.296875 72.90625 35.5 
Q 71.90625 33.703125 71.40625 28.203125 
z
M 67 27.5 
Q 66.59375 33.5 66.390625 34.703125 
Q 66.203125 35.90625 65.046875 35.90625 
Q 63.90625 35.90625 62.40625 35.59375 
Q 60.90625 35.296875 57 34.796875 
Q 53.90625 28.90625 51.5 24.90625 
z
M 33.796875 43.703125 
Q 37.59375 48.90625 38.84375 51.296875 
Q 40.09375 53.703125 40.296875 55.5 
Q 40.5 57.296875 41.640625 57.296875 
Q 42.796875 57.296875 44.640625 55.34375 
Q 46.5 53.40625 46.5 51.796875 
Q 46.5 50.203125 44.796875 49 
Q 41.796875 46.90625 25.203125 27.59375 
Q 37.90625 31.296875 42 31.296875 
Q 43.90625 31.296875 43.90625 30.5 
Q 43.90625 29.703125 42.703125 29.203125 
Q 25.5 22.703125 23.40625 21 
Q 22.296875 20.09375 21.046875 20.09375 
Q 19.796875 20.09375 18.9375 22.25 
Q 18.09375 24.40625 18.09375 25.59375 
Q 18.09375 26.796875 19.59375 27.59375 
Q 21.796875 28.796875 24.34375 31.4375 
Q 26.90625 34.09375 32 41.09375 
Q 23.40625 41.09375 19.296875 39.5 
Q 18.40625 39.09375 17.5 39.09375 
Q 16.59375 39.09375 15.84375 40.890625 
Q 15.09375 42.703125 15.09375 43.75 
Q 15.09375 44.796875 17.203125 45.59375 
Q 20.90625 47 23.34375 51.546875 
Q 25.796875 56.09375 27.640625 59.890625 
Q 29.5 63.703125 29.5 68.90625 
Q 29.5 70.5 30.796875 70.5 
Q 32.09375 70.5 35.296875 68.453125 
Q 38.5 66.40625 38.5 65.09375 
Q 38.5 63.796875 36.75 62.796875 
Q 35 61.796875 22.59375 44.703125 
Q 28.09375 43.90625 33.796875 43.703125 
z
M 44 15.796875 
Q 44 15 41.90625 13.90625 
Q 23.203125 4.703125 19.40625 1.90625 
Q 17.703125 0.703125 16.453125 0.703125 
Q 15.203125 0.703125 12.953125 3.296875 
Q 10.703125 5.90625 10.703125 7.046875 
Q 10.703125 8.203125 12.390625 8.203125 
Q 14.09375 8.203125 16.796875 8.796875 
Q 19.5 9.40625 22.203125 10.40625 
Q 24.90625 11.40625 31.75 13.59375 
Q 38.59375 15.796875 40.046875 16.140625 
Q 41.5 16.5 42.75 16.5 
Q 44 16.5 44 15.796875 
z
M 52 15.296875 
Q 52.5 15.296875 53.09375 13.84375 
Q 53.703125 12.40625 53.703125 10.046875 
Q 53.703125 7.703125 52.09375 4.140625 
Q 50.5 0.59375 48.640625 -1.34375 
Q 46.796875 -3.296875 45.546875 -3.296875 
Q 44.296875 -3.296875 44.296875 0.296875 
Q 44.296875 3.90625 46.59375 6.796875 
Q 50 11 51.203125 14.203125 
Q 51.59375 15.296875 52 15.296875 
z
M 93.09375 1.796875 
Q 93.09375 -2.40625 91.203125 -2.40625 
Q 89.796875 -2.40625 87.796875 0.296875 
L 81.703125 8.296875 
Q 77.796875 13.59375 77.796875 14.25 
Q 77.796875 14.90625 78.296875 14.90625 
Q 79.296875 14.90625 83.890625 12.90625 
Q 88.5 10.90625 90.796875 8.296875 
Q 93.09375 5.703125 93.09375 1.796875 
z
" id="STKaiti-32451"/>
     </defs>
     <g transform="translate(525.2 92.48)scale(0.2 -0.2)">
      <use xlink:href="#STKaiti-35757"/>
      <use x="99.999985" xlink:href="#STKaiti-32451"/>
     </g>
    </g>
   </g>
  </g>
 </g>
 <defs>
  <clipPath id="p498cb1aab2">
   <rect height="388.08" width="502.2" x="81" y="60.48"/>
  </clipPath>
 </defs>
</svg>
